PathFileType	4	(X/Y/Z)	C:/Users/beibeiliu/ov580/test_trc/User2\sequence.20_training_dense_right.trc
DataRate	CameraRate	NumFrames	NumMarkers	Units	OrigDataRate	OrigDataStartFrame	OrigNumFrames
120	120	22	19	mm	120	40	318
Frame#	Time	ThumbCMC			ThumbMCP			ThumbIP			ThumbTip			IndexMCP			IndexPIP			IndexTip			MiddleMCP			MiddlePIP			MiddleTip			RingMCP			RingPIP			RingTip			PinkyMCP			PinkyPIP			PinkyTip			BackHand1			BackHand2			BackHand3	
		X0	Y0	Z0	X1	Y1	Z1	X2	Y2	Z2	X3	Y3	Z3	X4	Y4	Z4	X5	Y5	Z5	X6	Y6	Z6	X7	Y7	Z7	X8	Y8	Z8	X9	Y9	Z9	X10	Y10	Z10	X11	Y11	Z11	X12	Y12	Z12	X13	Y13	Z13	X14	Y14	Z14	X15	Y15	Z15	X16	Y16	Z16	X17	Y17	Z17	X18	Y18	Z18	
39	0.325	152.079	-17.9811	23.5326	140.597	-5.56975	-10.5206	107.871	0.0141125	-24.1078	83.0327	-0.643666	-15.6207	101.01	-39.4253	-40.5582	85.9862	-40.6695	-64.739	67.3541	-40.6245	-87.5762	78.575	-50.1369	-41.838	60.1484	-49.9616	-65.8	42.66	-52.4893	-90.7229	59.4591	-51.3488	-25.8099	49.0704	-49.961	-46.739	36.4385	-49.1348	-73.1008	55.7197	-46.0013	-0.629845	40.4781	-45.4191	-21.8518	31.8669	-47.2559	-44.5735	89.2833	-59.5438	28.2479	107.219	-64.8109	55.3047	128.378	-54.0614	19.5692	
40	0.333333	153.024	-20.2632	21.8209	146.109	-5.86829	-8.923	114.256	0.628664	-27.13	87.2275	-4.89733	-17.0446	105.82	-42.684	-42.5741	88.5334	-43.511	-64.3842	70.2063	-44.4343	-89.8722	81.1917	-53.2992	-39.564	68.809	-51.0855	-64.548	51.5351	-55.7378	-92.5649	64.8497	-53.2638	-23.0119	54.3212	-52.2234	-48.0603	41.5957	-53.8564	-71.9389	55.1072	-49.3789	-1.2907	43.2617	-47.8793	-24.2411	35.6016	-50.7643	-45.424	94.3574	-59.9307	25.5111	110.267	-67.2525	53.1989	128.942	-54.0779	22.4725	
41	0.341667	154.474	-20.3303	23.8041	152.367	-5.04019	-9.22428	117.915	-2.5151	-26.7923	88.9602	-7.02713	-18.9725	111.771	-43.749	-44.7806	95.2654	-45.2787	-67.4691	81.4302	-46.1967	-89.9309	87.8418	-54.2439	-45.0696	71.8176	-54.6618	-67.4756	56.115	-59.1569	-94.9097	69.2785	-55.5531	-28.6946	61.8911	-54.5483	-48.8498	46.8957	-56.8881	-77.5506	59.84	-50.8934	-1.60694	50.9635	-48.5345	-29.8578	41.7932	-52.9339	-46.8338	98.2389	-62.9609	26.7037	111.718	-65.2546	50.5975	136.255	-53.6079	21.347	
42	0.35	156	-19.9898	23.406	155.299	-4.9316	-7.85516	121.989	-1.50571	-29.8029	92.1606	-8.01859	-21.9172	112.056	-44.972	-46.2678	100.353	-46.0111	-66.6471	85.9969	-47.7446	-90.5499	90.8708	-55.7597	-45.5138	78.9478	-56.0206	-66.8781	66.2168	-60.8887	-95.8454	78.3721	-54.9254	-30.116	66.4467	-56.5608	-53.0828	59.0202	-57.6977	-77.4014	63.6516	-52.6182	-4.80814	55.0857	-51.5496	-27.1215	49.0671	-55.9	-51.0227	102.516	-62.9265	25.0728	114.469	-66.3464	49.8063	138.018	-52.8138	18.1361	
43	0.358333	161.277	-17.0338	23.2678	156.972	-4.04422	-7.06414	127.253	-0.0954001	-28.3532	99.8274	-5.89831	-22.6346	119.04	-44.0185	-42.7897	107.494	-46.5772	-73.274	94.4568	-48.396	-93.1966	99.8427	-54.2577	-42.9531	88.928	-55.5755	-72.2547	76.6781	-61.1132	-97.2988	83.8314	-57.5552	-30.336	72.7765	-57.783	-57.2377	61.9035	-61.5382	-79.2078	68.7523	-55.3653	-8.97716	62.7652	-52.0291	-31.8775	55.4129	-56.7949	-53.724	107.439	-62.6759	23.6743	119.832	-67.2424	48.4612	140.686	-52.8711	22.7249	
44	0.366667	157.683	-14.9741	22.7742	158.757	-0.357332	-5.9072	129.215	2.12592	-27.83	100.476	-6.3957	-23.5352	125.104	-43.3007	-49.3882	115.868	-44.3357	-71.9168	98.0541	-49.7281	-95.1899	106.503	-54.0573	-48.3653	93.1635	-57.7267	-74.6424	84.2263	-63.2366	-101.977	88.1222	-58.6618	-36.5549	80.2964	-60.1824	-60.8273	70.692	-63.5862	-83.6977	77.6973	-54.7199	-11.8095	66.9895	-55.8881	-36.93	65.4771	-57.5701	-59.1106	110.592	-65.1297	17.7574	124.305	-65.7011	50.5506	147.07	-49.8104	21.384	
45	0.375	158.801	-10.6327	24.3329	157.656	3.73977	-7.77198	128.705	3.83294	-31.7304	99.1224	-9.47961	-25.8499	130.541	-40.5293	-45.0953	122.64	-41.3233	-73.733	107.943	-47.122	-100.113	115.101	-52.9979	-49.6516	105.422	-55.0087	-75.3249	93.4345	-63.5892	-104.59	98.1959	-58.5497	-34.9956	88.5294	-61.3595	-63.0848	81.9846	-65.5888	-88.1312	81.5177	-60.7823	-16.2444	76.5155	-57.1291	-37.0092	70.1181	-65.2072	-61.2603	118.338	-62.2951	17.5712	128.474	-68.4108	49.7978	152.456	-45.7216	17.225	
46	0.383333	160.522	-4.07061	24.9181	156.038	9.30698	-4.94675	125.41	6.19058	-31.7653	102.788	-7.3694	-24.5827	137.557	-34.1049	-48.2574	126.495	-39.838	-73.5744	113.391	-46.1602	-101.654	120.917	-51.9633	-49.9968	112.896	-54.5973	-79.4801	103.457	-62.2727	-107.148	106.205	-59.6161	-37.4386	97.8465	-62.154	-65.6134	91.7732	-65.4447	-92.2643	87.8584	-65.2562	-19.8793	80.9239	-63.8245	-44.8647	82.2992	-64.3639	-65.1178	119.018	-64.9753	13.7622	132.921	-68.2335	43.5195	153.239	-44.3688	18.7076	
47	0.391667	155.913	-1.98456	30.4398	152.8	16.9119	-4.30614	125.59	11.8181	-29.8868	103.287	-10.1517	-22.2321	142.086	-28.0361	-47.3695	131.319	-36.6287	-74.7654	124.67	-38.1054	-100.932	125.494	-50.7315	-52.8233	119.77	-52.2241	-83.9732	115.37	-57.5342	-112.796	112.52	-60.0995	-39.3629	104.548	-64.102	-68.9802	101.457	-63.665	-93.9246	96.2205	-65.66	-21.694	92.9067	-62.4389	-45.6962	93.7643	-66.3295	-67.3681	127.665	-65.704	14.8497	141.485	-64.9847	45.1581	157.942	-38.8372	21.9437	
48	0.4	154.112	4.35367	31.0468	148.48	23.1975	-0.926582	121.016	12.534	-28.3005	101.24	-7.30887	-25.0473	142.229	-26.229	-51.327	138.692	-26.2141	-73.542	128.286	-34.2124	-98.699	130.285	-46.5218	-53.7468	126.434	-46.0265	-82.3828	122.568	-51.7863	-112.696	119.919	-56.6616	-42.6952	113.443	-59.8728	-66.5129	108.287	-62.6491	-99.7199	101.944	-66.5253	-21.4643	97.1952	-68.2835	-46.9932	100.615	-66.0048	-69.1538	132.096	-62.7051	15.4724	143.983	-64.9468	41.9681	159.518	-34.0507	21.0825	
49	0.408333	149.245	5.54236	31.4663	142.705	22.9457	-1.02899	118.759	17.293	-25.3303	99.9266	-9.08483	-23.9138	141.975	-20.4735	-46.4161	136.475	-24.0474	-77.0863	129.571	-29.3493	-103.007	135.287	-38.5082	-50.0258	127.6	-45.1021	-84.2844	125.336	-47.1369	-110.572	121.257	-57.3888	-43.5806	119.227	-55.4919	-67.6932	115.064	-58.7298	-99.199	107.627	-63.7555	-21.1627	101.723	-67.0057	-47.9296	106.037	-65.7631	-68.7811	135.059	-60.3126	12.4835	146.098	-58.849	41.5977	160.19	-30.6542	22.0787	
50	0.416667	145.479	12.8008	31.7289	135.764	30.446	2.5621	113.936	20.2235	-23.1984	97.5453	-9.40819	-25.4337	142.916	-13.2232	-47.6473	137.927	-15.9457	-74.4888	131.3	-21.5801	-99.1525	136.123	-33.9482	-54.6406	131.006	-34.9131	-80.3834	126.8	-44.4161	-110.114	125.092	-54.5399	-42.9708	122.095	-53.7637	-67.1698	118.791	-55.9611	-98.8753	111.2	-62.7955	-23.5002	109.664	-60.7757	-48.872	108.501	-66.2028	-71.4714	138.579	-54.1272	9.38768	149.93	-56.0112	40.1679	157.644	-25.511	24.2388	
51	0.425	139.248	17.2085	37.8176	128.558	30.0826	4.9643	107.713	20.016	-19.7687	95.4695	-8.40276	-24.0903	139.519	-8.65707	-43.1194	133.852	-10.5945	-69.7601	130.244	-12.2793	-99.1789	136.135	-28.9248	-49.2555	131.605	-29.053	-79.0358	130.926	-31.6832	-112.449	127.649	-51.1016	-41.9122	126.507	-46.4344	-71.3695	123.924	-49.6861	-99.3539	115.761	-60.7237	-25.7225	111.694	-62.5536	-48.1437	116.035	-60.3004	-75.8207	140.482	-51.1894	9.46261	150.105	-55.5808	42.016	157.732	-18.4194	24.0884	
52	0.433333	131.811	18.2115	38.293	117.247	33.748	8.30175	99.7074	17.836	-18.6862	90.1543	-7.75226	-26.1145	134.306	-3.42176	-46.0032	131.402	-1.66746	-72.8635	126.444	-9.92224	-100.865	135.845	-24.47	-52.5152	131.185	-20.8315	-79.5324	130.151	-27.2236	-111.228	130.961	-42.731	-45.2093	128.527	-42.2263	-70.0392	128.206	-42.36	-99.9377	119.95	-58.1313	-25.3115	117.675	-55.9476	-51.0399	120.257	-53.7906	-74.5529	142.879	-49.6784	10.3637	152.648	-47.0423	44.1133	152.615	-15.0299	24.9509	
53	0.441667	122.278	17.4186	41.5829	106.295	33.8799	11.6263	90.9233	18.7579	-16.2042	87.9911	-14.1192	-26.4218	130.047	1.99688	-40.6521	126.479	-0.00809145	-66.474	123.196	-4.31381	-94.2031	134.525	-15.9254	-49.1908	131.522	-17.2283	-82.1473	131.546	-20.2255	-108.984	133.606	-40.2806	-46.0677	131.756	-38.6409	-69.0153	131.013	-31.146	-99.6751	124.357	-58.5943	-25.9238	121.571	-57.0448	-50.7321	124.894	-48.0258	-72.7166	145.884	-45.0641	12.8955	154.621	-43.4052	42.7419	150.559	-7.03131	26.0829	
54	0.45	112.535	11.6216	44.6723	95.7306	26.5854	18.0651	84.9623	11.3185	-15.7855	84.1541	-14.421	-24.8695	124.741	4.46152	-41.9504	121.632	6.13692	-68.8209	120.438	2.93339	-92.1057	132.708	-11.3664	-49.4856	130.02	-9.89751	-80.57	130.473	-7.93404	-105.846	134.717	-31.8636	-44.8465	134.827	-33.4275	-68.3818	133.666	-26.2028	-95.2365	130.578	-53.1218	-29.5378	127.347	-49.4573	-53.7977	130.977	-43.3635	-78.8659	145.804	-37.7306	10.8661	155.757	-40.4513	44.0425	145.25	-2.90634	26.3192	
55	0.458333	103.476	4.8797	46.663	86.3242	16.9686	18.7097	76.6441	4.92778	-11.9426	86.1092	-23.2188	-23.5932	116.911	9.59465	-36.903	115.357	8.39992	-63.3323	115.399	8.41354	-87.6897	130.027	-6.41683	-45.9212	127	-3.15661	-74.9382	129.95	-0.363149	-106.513	138.129	-29.0333	-41.0398	134.429	-19.9232	-68.6151	137.274	-18.1844	-95.4828	136.33	-48.5751	-26.7924	134.732	-45.018	-54.3587	134.733	-33.094	-73.9699	149.471	-33.4746	11.6493	156.134	-35.3816	45.973	136.97	1.23272	31.21	
56	0.466667	95.538	-2.03943	48.6363	75.0016	7.56228	21.0647	73.0725	-3.77848	-12.0385	85.4673	-26.2807	-25.8164	110.905	9.21308	-34.1792	106.967	13.0943	-57.2431	108.797	15.0768	-86.5863	126.282	-1.09508	-42.4422	124.16	1.07587	-70.344	124.851	8.7941	-100.496	136.512	-18.9913	-38.3251	137.888	-15.3313	-66.0513	137.023	-8.76211	-91.7691	140.403	-40.2021	-26.8021	140.516	-37.3934	-52.6714	139.994	-28.2337	-75.6673	149.772	-29.4003	15.615	156.463	-29.0448	46.7268	131.284	-0.901209	33.8441	
57	0.475	88.2613	-10.3954	50.8547	68.0875	-1.45758	20.4008	67.3315	-11.3706	-16.1329	83.3022	-29.4497	-25.6411	101.883	10.5998	-29.7261	101.705	13.2252	-56.8557	102.443	15.2911	-85.4457	122.592	0.948189	-41.214	118.786	8.44146	-70.7964	120.816	14.1722	-97.6064	137.698	-15.1699	-37.7561	135.323	-7.90368	-62.314	131.217	3.8275	-88.8209	147.092	-34.2275	-29.3673	140.651	-27.6154	-50.1023	141.786	-15.3981	-74.8903	146.528	-20.8316	17.7684	154.461	-23.8934	45.4996	124.772	-1.29932	36.2263	
58	0.483333	85.5079	-16.7037	49.079	62.1349	-11.5827	24.2856	60.6805	-17.1658	-11.8975	84.5017	-33.4979	-27.3613	97.5121	6.94012	-28.2685	92.8541	14.0735	-56.3878	93.9401	16.6182	-82.1373	117.823	3.26307	-37.3698	116.371	10.1733	-70.2229	112.6	21.5374	-97.4541	132.037	-7.96881	-35.65	133.559	-3.40049	-63.1933	128.81	7.51761	-85.4299	148.748	-28.6917	-26.6311	144.117	-21.8271	-50.1382	143.871	-9.42541	-70.4889	146.994	-19.762	19.584	153.334	-20.4809	52.2833	119.199	-1.92668	40.2217	
59	0.491667	84.7719	-22.8111	49.8705	58.8747	-16.4704	23.8946	66.3769	-23.901	-11.5382	83.4182	-35.6068	-27.8068	91.2425	6.23053	-27.2803	91.6113	10.1377	-54.0484	94.6967	14.4145	-82.0772	114.292	4.28842	-40.0707	111.881	11.2357	-68.0533	110.932	20.2673	-92.9963	134.111	-6.07653	-36.3865	132.708	0.210492	-60.9772	129.361	9.25285	-85.1309	150.767	-25.3188	-23.8912	146.909	-19.0992	-48.0318	141.158	-7.84185	-67.5054	143.664	-14.8425	16.593	151.047	-16.3367	53.0899	116.686	-2.54794	41.4738	
60	0.5	80.7845	-25.9282	52.0839	62.584	-22.3407	24.0376	63.5405	-27.2655	-12.3266	85.345	-37.8419	-31.9225	93.2727	4.14711	-30.436	88.8805	8.93003	-58.0346	90.1157	15.0211	-83.9718	112.048	3.45883	-35.9171	107.325	9.0653	-65.132	111.556	20.6103	-97.6672	133.975	-4.77603	-38.6522	131.648	-0.314432	-60.4108	128.305	10.4723	-86.5677	152.545	-23.8958	-23.6879	142.523	-15.5448	-48.7416	145.18	-6.03998	-67.0008	145.282	-12.7016	18.9197	149.734	-13.8245	52.5097	113.347	-2.27723	38.098	
